<svg width="1024" height="1024" viewBox="0 0 1024 1024" fill="none" xmlns="http://www.w3.org/2000/svg">
  <defs>
    <linearGradient id="bg" x1="194" y1="86" x2="844" y2="948" gradientUnits="userSpaceOnUse">
      <stop stop-color="#56595E"/>
      <stop offset="0.43" stop-color="#25292F"/>
      <stop offset="1" stop-color="#090D12"/>
    </linearGradient>
    <radialGradient id="glow" cx="0" cy="0" r="1" gradientUnits="userSpaceOnUse" gradientTransform="translate(338 248) rotate(48) scale(598 696)">
      <stop stop-color="#FFFFFF" stop-opacity="0.18"/>
      <stop offset="0.42" stop-color="#4BEAFB" stop-opacity="0.08"/>
      <stop offset="1" stop-color="#05090D" stop-opacity="0"/>
    </radialGradient>
    <linearGradient id="mark" x1="317" y1="232" x2="722" y2="771" gradientUnits="userSpaceOnUse">
      <stop stop-color="#FFFFFF"/>
      <stop offset="0.42" stop-color="#C9D3DC"/>
      <stop offset="1" stop-color="#F7FBFF"/>
    </linearGradient>
    <linearGradient id="shadow" x1="357" y1="354" x2="688" y2="772" gradientUnits="userSpaceOnUse">
      <stop stop-color="#111820"/>
      <stop offset="1" stop-color="#04070A"/>
    </linearGradient>
    <filter id="drop" x="101" y="106" width="822" height="850" filterUnits="userSpaceOnUse" color-interpolation-filters="sRGB">
      <feFlood flood-opacity="0" result="BackgroundImageFix"/>
      <feColorMatrix in="SourceAlpha" type="matrix" values="0 0 0 0 0 0 0 0 0 0 0 0 0 0 0 0 0 0 127 0" result="hardAlpha"/>
      <feOffset dy="34"/>
      <feGaussianBlur stdDeviation="34"/>
      <feComposite in2="hardAlpha" operator="out"/>
      <feColorMatrix type="matrix" values="0 0 0 0 0 0 0 0 0 0.05 0 0 0 0 0.08 0 0 0 0.5 0"/>
      <feBlend mode="normal" in2="BackgroundImageFix" result="effect1_dropShadow"/>
      <feBlend mode="normal" in="SourceGraphic" in2="effect1_dropShadow" result="shape"/>
    </filter>
    <filter id="markShadow" x="214" y="174" width="596" height="670" filterUnits="userSpaceOnUse" color-interpolation-filters="sRGB">
      <feFlood flood-opacity="0" result="BackgroundImageFix"/>
      <feColorMatrix in="SourceAlpha" type="matrix" values="0 0 0 0 0 0 0 0 0 0 0 0 0 0 0 0 0 0 127 0" result="hardAlpha"/>
      <feOffset dy="30"/>
      <feGaussianBlur stdDeviation="24"/>
      <feComposite in2="hardAlpha" operator="out"/>
      <feColorMatrix type="matrix" values="0 0 0 0 0 0 0 0 0 0.04 0 0 0 0 0.06 0 0 0 0.42 0"/>
      <feBlend mode="normal" in2="BackgroundImageFix" result="effect1_dropShadow"/>
      <feBlend mode="normal" in="SourceGraphic" in2="effect1_dropShadow" result="shape"/>
    </filter>
  </defs>

  <g filter="url(#drop)">
    <rect x="64" y="64" width="896" height="896" rx="216" fill="url(#bg)"/>
    <rect x="64" y="64" width="896" height="896" rx="216" fill="url(#glow)"/>
    <path d="M120 222C264 151 461 119 672 137C803 148 902 190 960 236V64H64V960H960V778C817 858 592 898 384 849C226 812 127 729 86 612L120 222Z" fill="white" fill-opacity="0.055"/>
    <path d="M112 793C250 893 509 933 731 878C825 855 903 815 960 765V960H64V770C79 778 95 786 112 793Z" fill="#02060A" fill-opacity="0.34"/>
    <rect x="66.5" y="66.5" width="891" height="891" rx="213.5" stroke="white" stroke-opacity="0.13" stroke-width="5"/>
  </g>

  <g filter="url(#markShadow)">
    <path d="M316 715V539C316 424 403 331 512 331C621 331 708 424 708 539V715" stroke="url(#mark)" stroke-width="118" stroke-linecap="round" stroke-linejoin="round"/>
    <path d="M426 716V548C426 497 465 456 512 456C559 456 598 497 598 548V716" stroke="url(#shadow)" stroke-width="92" stroke-linecap="round" stroke-linejoin="round"/>
    <path d="M430 716H594" stroke="#5CF2FF" stroke-width="78" stroke-linecap="round"/>
  </g>
</svg>
